<?xml version="1.0" encoding="UTF-8"?>
<svg id="_Слой_1" data-name="Слой 1" xmlns="http://www.w3.org/2000/svg" viewBox="0 0 249.31 311.08">
  <defs>
    <style>
      .cls-1 {
        fill: #000;
        stroke-width: 0px;
      }
    </style>
  </defs>
  <path class="cls-1" d="M110.66,204.65c3.26-5.18,5.03-12.22,5.33-21.11l-.44-140.43c0-13.33-4.3-23.85-12.89-31.55C94.06,3.85,80.88,0,63.11,0H0v311.08h44.44v-110.21h2.67c.15,0,.3.02.45.05l19.1,110.16h48.88l-25.84-91.85c3.07-.76,5.91-1.83,8.51-3.25,5.03-2.37,9.18-6.15,12.44-11.33ZM44.44,192.43V41.33c10.67-3.56,18-3.4,22,.44,4,3.85,6,10.82,6,20.89v115.1c0,2.08-.3,4.37-.89,6.89-.6,2.52-1.85,4.74-3.78,6.67-1.93,1.93-4.74,3.11-8.44,3.56-3.71.44-8.67-.37-14.89-2.44Z"/>
  <polygon class="cls-1" points="187.09 274.85 187.09 170.21 226.2 170.21 226.2 124.88 187.09 124.88 187.09 36.24 235.09 45.33 249.31 0 187.09 0 147.1 0 142.65 0 142.65 311.08 147.1 311.08 187.09 311.08 249.31 311.08 235.09 265.75 187.09 274.85"/>
</svg>