<?xml version="1.0" encoding="UTF-8"?>
<svg id="_Слой_1" data-name="Слой 1" xmlns="http://www.w3.org/2000/svg" viewBox="0 0 519.35 315.73">
  <defs>
    <style>
      .cls-1 {
        fill: #000;
        stroke-width: 0px;
      }
    </style>
  </defs>
  <g>
    <path class="cls-1" d="M100.27,14.08C90.05,4.75,75.9.08,57.83.08S25.61,4.75,15.39,14.08.06,37.86.06,57.41v199.09c0,13.04,1.4,23.63,4.22,31.77,2.81,8.15,6.81,14.44,12,18.89,5.18,4.44,11.48,7.41,18.89,8.89,7.4,1.48,15.55,2.22,24.44,2.22s16.81-.89,23.78-2.67c6.96-1.78,12.81-4.96,17.55-9.55,4.74-4.59,8.37-10.96,10.89-19.11,2.51-8.15,3.78-18.44,3.78-30.89v-29.78h-42.66v19.55c0,9.48-.74,17.33-2.22,23.55-1.49,6.22-5.63,9.33-12.44,9.33s-11.11-3.11-12.89-9.33c-1.78-6.22-2.67-14.07-2.67-23.55V68.08c0-7.4.81-13.92,2.44-19.55,1.62-5.62,5.85-8.44,12.67-8.44s11.03,2.74,12.67,8.22c1.62,5.49,2.44,12.08,2.44,19.78v41.77h42.66v-52.44c0-19.55-5.11-34-15.33-43.33Z"/>
    <polygon class="cls-1" points="133.38 4.53 133.38 49.86 164.48 44.97 164.48 315.61 208.92 315.61 208.92 45.41 239.59 49.86 239.59 4.53 133.38 4.53"/>
  </g>
  <g>
    <path class="cls-1" d="M358.05,13.61c-10.08-9.62-24.15-14.44-42.22-14.44s-32.3,4.82-42.66,14.44c-10.37,9.63-15.55,24.22-15.55,43.77v198.21c0,13.33,1.33,24.07,4,32.22,2.67,8.15,6.59,14.44,11.78,18.89,5.18,4.44,11.4,7.41,18.67,8.89,7.26,1.48,15.33,2.22,24.22,2.22s16.37-.74,23.33-2.22c6.96-1.48,12.96-4.44,18-8.89,5.03-4.44,8.96-10.74,11.78-18.89,2.81-8.14,4.22-18.89,4.22-32.22l-.44-198.21c0-19.55-5.04-34.14-15.11-43.77ZM330.5,245.37c0,9.49-.74,17.33-2.22,23.55-1.49,6.22-5.63,9.33-12.44,9.33s-11.04-3.11-12.67-9.33c-1.63-6.22-2.44-14.07-2.44-23.55V68.05c0-7.4.89-14.07,2.67-20,1.78-5.92,5.92-8.89,12.44-8.89,3.26,0,5.85.82,7.78,2.44,1.92,1.63,3.4,3.78,4.44,6.44,1.03,2.67,1.7,5.71,2,9.11.29,3.41.44,7.04.44,10.89v177.32Z"/>
    <path class="cls-1" d="M498.48,220.04c5.03-2.37,9.18-6.15,12.44-11.33,3.26-5.18,5.03-12.22,5.33-21.11l-.44-140.43c0-13.33-4.3-23.84-12.89-31.55-8.6-7.7-21.78-11.55-39.55-11.55h-63.11v311.08h44.44v-110.21h2.67c.15,0,.3.02.45.05l19.1,110.16h48.88l-25.84-91.85c3.07-.76,5.91-1.83,8.51-3.25ZM444.71,196.49V45.39c10.67-3.56,18-3.4,22,.44,4,3.85,6,10.82,6,20.89v115.1c0,2.08-.3,4.37-.89,6.89-.6,2.52-1.85,4.74-3.78,6.67-1.93,1.93-4.74,3.11-8.44,3.55-3.71.44-8.67-.37-14.89-2.44Z"/>
  </g>
</svg>