<?xml version="1.0" encoding="UTF-8"?>
<svg id="_Слой_1" data-name="Слой 1" xmlns="http://www.w3.org/2000/svg" viewBox="0 0 249.31 311.08">
  <defs>
    <style>
      .cls-1 {
        fill: #000;
        stroke-width: 0px;
      }
    </style>
  </defs>
  <path class="cls-1" d="M102.21,6.67c-3.85-2.67-8-4.44-12.44-5.33-4.44-.89-8.44-1.33-12-1.33H0v311.08h63.11c17.78,0,30.96-3.85,39.55-11.55,8.59-7.7,12.89-18.22,12.89-31.55l.44-231.09c0-7.7-1.33-14-4-18.89-2.67-4.89-5.93-8.67-9.78-11.33ZM72.44,248.42c0,10.08-2,17.04-6,20.89-4,3.85-11.33,4-22,.44V41.33c6.22-2.07,11.18-2.89,14.89-2.44,3.7.44,6.51,1.63,8.44,3.56,1.92,1.93,3.18,4.15,3.78,6.67.59,2.52.89,4.82.89,6.89v192.43Z"/>
  <polygon class="cls-1" points="187.09 274.85 187.09 170.21 226.2 170.21 226.2 124.88 187.09 124.88 187.09 36.24 235.09 45.33 249.31 0 187.09 0 147.1 0 142.65 0 142.65 311.08 147.1 311.08 187.09 311.08 249.31 311.08 235.09 265.75 187.09 274.85"/>
</svg>