<?xml version="1.0" encoding="UTF-8"?>
<svg id="_Слой_1" data-name="Слой 1" xmlns="http://www.w3.org/2000/svg" viewBox="0 0 239.53 318.19">
  <defs>
    <style>
      .cls-1 {
        fill: #000;
        stroke-width: 0px;
      }
    </style>
  </defs>
  <path class="cls-1" d="M100.21,14C89.99,4.67,75.84,0,57.77,0S25.55,4.67,15.33,14,0,37.77,0,57.33v199.09c0,13.04,1.4,23.63,4.22,31.77,2.81,8.15,6.81,14.44,12,18.89,5.18,4.44,11.48,7.41,18.89,8.89,7.4,1.48,15.55,2.22,24.44,2.22s16.81-.89,23.78-2.67c6.96-1.78,12.81-4.96,17.55-9.55,4.74-4.59,8.37-10.96,10.89-19.11,2.51-8.15,3.78-18.44,3.78-30.89v-29.78h-42.66v19.55c0,9.48-.74,17.33-2.22,23.55-1.49,6.22-5.63,9.33-12.44,9.33s-11.11-3.11-12.89-9.33c-1.78-6.22-2.67-14.07-2.67-23.55V67.99c0-7.4.81-13.92,2.44-19.55,1.62-5.62,5.85-8.44,12.67-8.44s11.03,2.74,12.67,8.22c1.62,5.49,2.44,12.08,2.44,19.78v41.77h42.66v-52.44c0-19.55-5.11-34-15.33-43.33Z"/>
  <polygon class="cls-1" points="133.32 4.44 133.32 49.77 164.42 44.88 164.42 315.53 208.86 315.53 208.86 45.33 239.53 49.77 239.53 4.44 133.32 4.44"/>
</svg>