<?xml version="1.0" encoding="UTF-8"?>
<svg id="_Слой_1" data-name="Слой 1" xmlns="http://www.w3.org/2000/svg" viewBox="0 0 253.76 318.64">
  <defs>
    <style>
      .cls-1 {
        fill: #000;
        stroke-width: 0px;
      }
    </style>
  </defs>
  <path class="cls-1" d="M100.44,14.44C90.36,4.82,76.29,0,58.22,0S25.92,4.82,15.55,14.44C5.18,24.07,0,38.66,0,58.22v198.21c0,13.33,1.33,24.07,4,32.22,2.67,8.15,6.59,14.44,11.78,18.89,5.18,4.44,11.4,7.41,18.67,8.89,7.26,1.48,15.33,2.22,24.22,2.22s16.37-.74,23.33-2.22c6.96-1.48,12.96-4.44,18-8.89,5.03-4.44,8.96-10.73,11.78-18.89,2.81-8.15,4.22-18.89,4.22-32.22l-.44-198.21c0-19.55-5.04-34.14-15.11-43.77ZM72.88,246.2c0,9.48-.74,17.33-2.22,23.55-1.49,6.22-5.63,9.33-12.44,9.33s-11.04-3.11-12.67-9.33c-1.63-6.22-2.44-14.07-2.44-23.55V68.88c0-7.4.89-14.07,2.67-20,1.78-5.92,5.92-8.89,12.44-8.89,3.26,0,5.85.82,7.78,2.44,1.92,1.63,3.4,3.78,4.44,6.44,1.03,2.67,1.7,5.71,2,9.11.29,3.41.44,7.04.44,10.89v177.32Z"/>
  <polygon class="cls-1" points="253.76 50.22 253.76 4.89 187.09 4.89 147.1 4.89 142.65 4.89 142.65 316.42 187.09 316.42 187.09 185.75 228.42 191.98 228.42 134.65 187.09 140.89 187.09 43.16 253.76 50.22"/>
</svg>