<?xml version="1.0" encoding="UTF-8"?>
<svg id="_Слой_1" data-name="Слой 1" xmlns="http://www.w3.org/2000/svg" viewBox="0 0 115.99 311.08">
  <defs>
    <style>
      .cls-1 {
        fill: #000;
        stroke-width: 0px;
      }
    </style>
  </defs>
  <path class="cls-1" d="M44.44,177.32v133.77H0V0h63.11c17.78,0,30.96,3.85,39.55,11.55,8.59,7.71,12.89,18.22,12.89,31.55l.44,104.88c0,7.71-1.33,14-4,18.89-2.67,4.89-5.93,8.67-9.78,11.33-3.85,2.67-8,4.44-12.44,5.33-4.44.89-8.44,1.33-12,1.33-3.85,0-7.78-.37-11.78-1.11-4-.74-7.63-1.7-10.89-2.89-3.56-.89-7.11-2.07-10.67-3.56ZM44.44,41.33v102.21c6.22,2.08,11.18,2.89,14.89,2.44,3.7-.44,6.51-1.62,8.44-3.56,1.92-1.92,3.18-4.15,3.78-6.67.59-2.51.89-4.81.89-6.89V62.66c0-10.07-2-17.03-6-20.89-4-3.85-11.33-4-22-.44Z"/>
</svg>