<?xml version="1.0" encoding="UTF-8"?>
<svg id="_Слой_1" data-name="Слой 1" xmlns="http://www.w3.org/2000/svg" viewBox="0 0 187.02 318.18">
  <defs>
    <style>
      .cls-1 {
        fill: #000;
        stroke-width: 0px;
      }
    </style>
  </defs>
  <path class="cls-1" d="M21.78,4.44L0,315.53h44.44l1.95-40.89h23.42l1.74,40.89h44.44L96.44,4.44H21.78ZM48.55,229.31l8.33-174.65h3.56l7.44,174.65h-19.32Z"/>
  <path class="cls-1" d="M174.36,48.44c1.62-5.62,5.85-8.44,12.67-8.44V0c-18.07,0-32.22,4.67-42.44,14-10.22,9.33-15.33,23.78-15.33,43.33v199.09c0,13.04,1.4,23.63,4.22,31.77,2.81,8.15,6.81,14.44,12,18.89,5.18,4.44,11.48,7.41,18.89,8.89,6.9,1.38,14.47,2.11,22.66,2.2v-39.55c-6.56-.14-10.71-3.24-12.44-9.32-1.78-6.22-2.67-14.07-2.67-23.55V67.99c0-7.4.81-13.92,2.44-19.55Z"/>
</svg>