<?xml version="1.0" encoding="UTF-8"?>
<svg id="_Слой_1" data-name="Слой 1" xmlns="http://www.w3.org/2000/svg" viewBox="0 0 317.52 318.18">
  <defs>
    <style>
      .cls-1 {
        fill: #000;
        stroke-width: 0px;
      }
    </style>
  </defs>
  <polygon class="cls-1" points="274.15 4.47 278.15 225.78 275.04 225.78 247.49 4.47 247.04 4.47 202.6 4.47 202.6 315.55 247.04 315.55 242.6 93.35 245.71 93.35 274.15 315.11 274.15 315.55 318.59 315.55 318.59 4.47 274.15 4.47"/>
  <path class="cls-1" d="M94.57,4.62l-21.78,311.08h44.44l1.95-40.89h23.42l1.74,40.89h44.44L169.23,4.62h-74.66ZM121.34,229.49l8.33-174.65h3.56l7.44,174.65h-19.32Z"/>
  <path class="cls-1" d="M15.27,245.93c0,9.48-.74,17.33-2.22,23.55-1.49,6.22-5.63,9.33-12.44,9.33-.15,0-.3-.01-.44-.01v39.55c.59,0,1.18.02,1.78.02,8.89,0,16.81-.89,23.78-2.67,6.96-1.78,12.81-4.96,17.55-9.55,4.74-4.59,8.37-10.96,10.89-19.11,2.51-8.15,3.78-18.44,3.78-30.89v-29.78H15.27v19.55Z"/>
  <path class="cls-1" d="M42.6,14.17C32.38,4.84,18.23.18.16.18h0v40h0c6.81,0,11.03,2.74,12.67,8.22,1.62,5.49,2.44,12.08,2.44,19.78v41.77h42.66v-52.44c0-19.55-5.11-34-15.33-43.33Z"/>
</svg>