<?xml version="1.0" encoding="UTF-8"?>
<svg id="_Слой_1" data-name="Слой 1" xmlns="http://www.w3.org/2000/svg" viewBox="0 0 307.95 318.18">
  <defs>
    <style>
      .cls-1 {
        fill: #000;
        stroke-width: 0px;
      }
    </style>
  </defs>
  <path class="cls-1" d="M102.66,16c-8.6-7.7-21.78-11.55-39.55-11.55H0v311.08h44.44v-133.77c3.56,1.49,7.11,2.67,10.67,3.56,3.26,1.19,6.89,2.15,10.89,2.89,4,.74,7.92,1.11,11.78,1.11,3.56,0,7.56-.44,12-1.33,4.44-.89,8.59-2.67,12.44-5.33,3.85-2.67,7.11-6.44,9.78-11.33,2.67-4.89,4-11.18,4-18.89l-.44-104.88c0-13.33-4.3-23.85-12.89-31.55ZM72.44,133.32c0,2.08-.3,4.37-.89,6.89-.6,2.52-1.85,4.74-3.78,6.67-1.93,1.93-4.74,3.11-8.44,3.56-3.71.44-8.67-.37-14.89-2.44V45.77c10.67-3.56,18-3.4,22,.44,4,3.85,6,10.82,6,20.89v66.22Z"/>
  <path class="cls-1" d="M142.7,4.44l-21.78,311.08h44.44l1.95-40.89h23.42l1.74,40.89h44.44L217.36,4.44h-74.66ZM169.48,229.31l8.33-174.65h3.56l7.44,174.65h-19.32Z"/>
  <path class="cls-1" d="M295.29,48.44c1.62-5.62,5.85-8.44,12.67-8.44V0c-18.07,0-32.22,4.67-42.44,14-10.22,9.33-15.33,23.78-15.33,43.33v199.09c0,13.04,1.4,23.63,4.22,31.77,2.81,8.15,6.81,14.44,12,18.89,5.18,4.44,11.48,7.41,18.89,8.89,6.9,1.38,14.47,2.11,22.66,2.2v-39.55c-6.56-.14-10.71-3.24-12.44-9.32-1.78-6.22-2.67-14.07-2.67-23.55V67.99c0-7.4.81-13.92,2.44-19.55Z"/>
</svg>